<svg width="16" height="18" viewBox="0 0 16 18" fill="none" xmlns="http://www.w3.org/2000/svg">
<path d="M12.5871 17.2778C11.611 18.2277 10.5452 18.0777 9.51931 17.6278C8.43362 17.1678 7.43757 17.1478 6.29212 17.6278C4.85781 18.2477 4.10081 18.0677 3.24421 17.2778C-1.61651 12.2485 -0.899354 4.58942 4.61875 4.30946C5.96342 4.37945 6.8997 5.04936 7.68658 5.10935C8.86192 4.86939 9.98745 4.17947 11.2425 4.26946C12.7465 4.38945 13.882 4.98937 14.629 6.06923C11.5214 7.939 12.2584 12.0485 15.1071 13.1983C14.5394 14.6981 13.8023 16.188 12.5772 17.2878L12.5871 17.2778ZM7.58698 4.24946C7.43757 2.01975 9.24042 0.179977 11.3122 0C11.6011 2.57967 8.98145 4.49943 7.58698 4.24946Z" fill="white" fill-opacity="0.66"/>
</svg>
