<svg width="18" height="18" viewBox="0 0 18 18" fill="none" xmlns="http://www.w3.org/2000/svg">
<path d="M17.4837 7.37807C17.5887 7.98211 17.641 8.59415 17.64 9.20726C17.64 11.9454 16.6615 14.2606 14.9587 15.8277H14.9609C13.4718 17.2035 11.4248 18 8.9977 18C6.61136 18 4.32276 17.0518 2.63536 15.364C0.947969 13.6763 0 11.3871 0 9.00027C0 6.61339 0.947969 4.32428 2.63536 2.6365C4.32276 0.948721 6.61136 0.000537737 8.9977 0.000537737C11.2311 -0.0243397 13.3877 0.814807 15.0172 2.34272L12.4483 4.91214C11.5195 4.02708 10.2804 3.54229 8.9977 3.56218C6.65042 3.56218 4.65631 5.14613 3.94549 7.27907C3.56927 8.39684 3.56927 9.60707 3.94549 10.7248H3.94886C4.66306 12.8544 6.6538 14.4384 9.00107 14.4384C10.2135 14.4384 11.255 14.1279 12.0625 13.5789H12.0592C12.5282 13.2683 12.9293 12.8658 13.2384 12.3957C13.5475 11.9257 13.7582 11.3978 13.8576 10.8441H8.9977V7.37919L17.4837 7.37807Z" fill="white" fill-opacity="0.66"/>
</svg>
