<svg width="30" height="30" viewBox="0 0 30 30" fill="none" xmlns="http://www.w3.org/2000/svg">
<circle cx="15" cy="15" r="15" fill="#FFF1E8"/>
<circle cx="15" cy="15" r="15" stroke="url(#paint0_linear_158_216)"/>
<g clip-path="url(#clip0_158_216)">
<path d="M24.7815 6L16.5312 12.0959L18.0655 8.50342L24.7815 6Z" fill="#E17726"/>
<path d="M6.46516 6.00732L13.1632 8.504L14.62 12.1436L6.46516 6.00732ZM21.4616 18.9645L25.1081 19.0338L23.8337 23.3569L19.3842 22.1336L21.4616 18.9645ZM9.76594 18.9645L11.8356 22.1336L7.39362 23.357L6.12695 19.0338L9.76594 18.9645Z" fill="#E27625"/>
<path d="M14.4215 11.2162L14.5705 16.0224L10.1113 15.8199L11.3797 13.909L11.3958 13.8906L14.4215 11.2162ZM16.759 11.1626L19.8309 13.8908L19.8468 13.9091L21.1152 15.8199L16.657 16.0224L16.759 11.1626ZM11.9658 18.9781L14.4006 20.8725L11.5722 22.2361L11.9658 18.9781ZM19.2613 18.9778L19.6467 22.2362L16.8262 20.8724L19.2613 18.9778Z" fill="#E27625"/>
<path d="M16.889 20.6943L19.751 22.0782L17.0887 23.3417L17.1164 22.5066L16.889 20.6943ZM14.3378 20.6949L14.1193 22.493L14.1373 23.3407L11.4688 22.0782L14.3378 20.6949Z" fill="#D5BFB2"/>
<path d="M13.5113 16.6499L14.2592 18.2195L11.7129 17.4746L13.5113 16.6499ZM17.7162 16.6501L19.5231 17.4746L16.9684 18.2193L17.7162 16.6501Z" fill="#233447"/>
<path d="M12.1607 18.9621L11.7491 22.3401L9.54297 19.036L12.1607 18.9621ZM19.0667 18.9622L21.6845 19.036L19.4701 22.3403L19.0667 18.9622ZM21.1799 15.6289L19.2748 17.5677L17.806 16.8975L17.1027 18.3738L16.6417 15.8351L21.1799 15.6289ZM10.0463 15.6289L14.5854 15.8351L14.1243 18.3738L13.4209 16.8977L11.9599 17.5678L10.0463 15.6289Z" fill="#CC6228"/>
<path d="M9.91797 15.231L12.0734 17.415L12.148 19.5712L9.91797 15.231ZM21.3114 15.2271L19.0773 19.575L19.1614 17.415L21.3114 15.2271ZM14.48 15.364L14.5668 15.9093L14.7811 17.2676L14.6433 21.4395L13.9917 18.0881L13.9915 18.0534L14.48 15.364ZM16.7461 15.3564L17.2358 18.0534L17.2356 18.0881L16.5824 21.4479L16.5566 20.6075L16.4546 17.2428L16.7461 15.3564Z" fill="#E27525"/>
<path d="M19.3537 17.3286L19.2808 19.202L17.007 20.971L16.5474 20.6467L17.0626 17.9966L19.3537 17.3286ZM11.8828 17.3286L14.166 17.9966L14.6812 20.6467L14.2216 20.971L11.9477 19.2018L11.8828 17.3286Z" fill="#F5841F"/>
<path d="M11.0332 21.6646L13.9422 23.041L13.9299 22.4532L14.1733 22.2398H17.0525L17.3047 22.4524L17.286 23.0398L20.1767 21.668L18.7701 22.8287L17.0693 23.9952H14.15L12.4503 22.8239L11.0332 21.6646Z" fill="#C0AC9D"/>
<path d="M16.6806 20.5107L17.0919 20.8009L17.3329 22.7212L16.9841 22.4271H14.2445L13.9023 22.7271L14.1355 20.8011L14.5469 20.5107H16.6806Z" fill="#161616"/>
<path d="M24.2369 6.16895L25.2273 9.13572L24.6088 12.1355L25.0492 12.4747L24.4532 12.9288L24.9012 13.2742L24.308 13.8135L24.6722 14.0769L23.7058 15.2038L19.7425 14.0514L19.7081 14.0331L16.8521 11.6272L24.2369 6.16895ZM6.99035 6.16895L14.3753 11.6272L11.5191 14.0331L11.4848 14.0514L7.52143 15.2038L6.55511 14.0769L6.91893 13.8138L6.32619 13.2742L6.77322 12.9291L6.16831 12.4738L6.62534 12.1344L6 9.13587L6.99035 6.16895Z" fill="#763E1A"/>
<path d="M19.5492 13.7992L23.7486 15.0202L25.1129 19.2191H21.5135L19.0335 19.2503L20.8371 15.7397L19.5492 13.7992ZM11.6792 13.7992L10.3911 15.7397L12.1949 19.2503L9.71599 19.2191H6.12305L7.4797 15.0202L11.6792 13.7992ZM18.2718 8.4834L17.0972 11.6513L16.8479 15.9308L16.7525 17.2722L16.7449 20.6988H14.4834L14.476 17.2786L14.3803 15.9297L14.131 11.6513L12.9565 8.4834H18.2718Z" fill="#F5841F"/>
</g>
<defs>
<linearGradient id="paint0_linear_158_216" x1="19.6216" y1="34.3333" x2="-1.59747" y2="33.5218" gradientUnits="userSpaceOnUse">
<stop stop-color="#8B79BB"/>
<stop offset="1" stop-color="#362466" stop-opacity="0.7"/>
</linearGradient>
<clipPath id="clip0_158_216">
<rect width="19.2273" height="18" fill="white" transform="translate(6 6)"/>
</clipPath>
</defs>
</svg>
