<svg width="30" height="30" viewBox="0 0 30 30" fill="none" xmlns="http://www.w3.org/2000/svg">
<circle cx="15" cy="15" r="15" fill="#FFF1E8"/>
<circle cx="15" cy="15" r="15" stroke="url(#paint0_linear_158_218)"/>
<path d="M9.09365 11.3453C12.3557 8.21825 17.6437 8.21825 20.9057 11.3453L21.2977 11.7212C21.3361 11.7577 21.3667 11.8016 21.3876 11.8502C21.4085 11.8989 21.4193 11.9513 21.4193 12.0042C21.4193 12.0572 21.4085 12.1096 21.3876 12.1583C21.3667 12.2069 21.3361 12.2508 21.2977 12.2872L19.9547 13.5743C19.9148 13.6119 19.862 13.6328 19.8072 13.6328C19.7523 13.6328 19.6995 13.6119 19.6597 13.5743L19.1197 13.0562C16.8437 10.8762 13.1547 10.8762 10.8797 13.0562L10.3017 13.6112C10.2617 13.6492 10.2087 13.6703 10.1537 13.6703C10.0986 13.6703 10.0456 13.6492 10.0057 13.6112L8.66365 12.3243C8.62522 12.2878 8.59462 12.2439 8.5737 12.1953C8.55279 12.1466 8.542 12.0942 8.542 12.0413C8.542 11.9883 8.55279 11.9359 8.5737 11.8872C8.59462 11.8386 8.62522 11.7947 8.66365 11.7583L9.09365 11.3453ZM23.6827 14.0062L24.8777 15.1523C24.9161 15.1887 24.9467 15.2326 24.9676 15.2812C24.9885 15.3299 24.9993 15.3823 24.9993 15.4353C24.9993 15.4882 24.9885 15.5406 24.9676 15.5893C24.9467 15.6379 24.9161 15.6818 24.8777 15.7183L19.4887 20.8832C19.4089 20.9585 19.3033 21.0004 19.1937 21.0004C19.084 21.0004 18.9784 20.9585 18.8987 20.8832L15.0737 17.2172C15.0534 17.1988 15.027 17.1886 14.9997 17.1886C14.9723 17.1886 14.9459 17.1988 14.9257 17.2172L11.1017 20.8832C11.0219 20.9585 10.9163 21.0004 10.8067 21.0004C10.697 21.0004 10.5914 20.9585 10.5117 20.8832L5.12165 15.7183C5.08322 15.6818 5.05262 15.6379 5.0317 15.5893C5.01079 15.5406 5 15.4882 5 15.4353C5 15.3823 5.01079 15.3299 5.0317 15.2812C5.05262 15.2326 5.08322 15.1887 5.12165 15.1523L6.31665 14.0062C6.39645 13.931 6.50198 13.8891 6.61165 13.8891C6.72133 13.8891 6.82686 13.931 6.90665 14.0062L10.7327 17.6722C10.7727 17.7122 10.8387 17.7122 10.8797 17.6722L14.7047 14.0062C14.7844 13.931 14.89 13.8891 14.9997 13.8891C15.1093 13.8891 15.2149 13.931 15.2947 14.0062L19.1197 17.6722C19.1597 17.7122 19.2267 17.7122 19.2667 17.6722L23.0917 14.0062C23.1714 13.931 23.277 13.8891 23.3867 13.8891C23.4963 13.8891 23.6019 13.931 23.6817 14.0062" fill="#3B99FC"/>
<defs>
<linearGradient id="paint0_linear_158_218" x1="19.6216" y1="34.3333" x2="-1.59747" y2="33.5218" gradientUnits="userSpaceOnUse">
<stop stop-color="#8B79BB"/>
<stop offset="1" stop-color="#362466" stop-opacity="0.7"/>
</linearGradient>
</defs>
</svg>
