<svg width="30" height="30" viewBox="0 0 30 30" fill="none" xmlns="http://www.w3.org/2000/svg">
<path d="M0 15C0 6.7155 6.7155 0 15 0C23.2845 0 30 6.7155 30 15C30 23.2845 23.2845 30 15 30C6.7155 30 0 23.2845 0 15Z" fill="#0E5BFF"/>
<path fill-rule="evenodd" clip-rule="evenodd" d="M15.0034 25.625C17.8212 25.625 20.5236 24.5056 22.5161 22.5131C24.5085 20.5207 25.6279 17.8183 25.6279 15.0005C25.6279 12.1827 24.5085 9.4803 22.5161 7.48782C20.5236 5.49534 17.8212 4.37598 15.0034 4.37598C12.1856 4.37598 9.48323 5.49534 7.49075 7.48782C5.49827 9.4803 4.37891 12.1827 4.37891 15.0005C4.37891 17.8183 5.49827 20.5207 7.49075 22.5131C9.48323 24.5056 12.1856 25.625 15.0034 25.625ZM13.7539 11.876C12.7189 11.876 11.8789 12.716 11.8789 13.751V16.25C11.8789 17.285 12.7189 18.125 13.7539 18.125H16.2529C17.2879 18.125 18.1279 17.285 18.1279 16.25V13.751C18.1279 12.716 17.2879 11.876 16.2529 11.876H13.7539Z" fill="white"/>
</svg>
