<svg width="30" height="30" viewBox="0 0 30 30" fill="none" xmlns="http://www.w3.org/2000/svg">
<circle cx="15" cy="15" r="15" fill="#FFF1E8"/>
<circle cx="15" cy="15" r="15" stroke="url(#paint0_linear_158_217)"/>
<path d="M24.898 16.2997C25.683 14.4727 21.8 9.37166 18.09 7.24566C15.75 5.59966 13.315 5.82566 12.82 6.54966C11.737 8.13566 16.407 9.47966 19.53 11.0497C18.858 11.3527 18.225 11.8967 17.853 12.5937C16.69 11.2697 14.135 10.1297 11.137 11.0487C9.117 11.6667 7.437 13.1237 6.787 15.3257C6.62591 15.2499 6.45 15.211 6.272 15.2117C5.569 15.2117 5 15.8047 5 16.5357C5 17.2657 5.57 17.8587 6.272 17.8587C6.402 17.8587 6.809 17.7687 6.809 17.7687L13.315 17.8177C10.713 22.1117 8.657 22.7397 8.657 23.4837C8.657 24.2277 10.624 24.0257 11.363 23.7487C14.899 22.4217 18.697 18.2837 19.349 17.0927C22.086 17.4477 24.386 17.4897 24.898 16.2987" fill="url(#paint1_linear_158_217)"/>
<path fill-rule="evenodd" clip-rule="evenodd" d="M19.5292 11.0487C19.6742 10.9887 19.6512 10.7667 19.6112 10.5927C19.5202 10.1907 17.9442 8.57174 16.4632 7.84574C14.4462 6.85774 12.9612 6.90874 12.7422 7.36374C13.1522 8.23974 15.0572 9.06274 17.0472 9.92174C17.8952 10.2887 18.7592 10.6617 19.5292 11.0487Z" fill="url(#paint2_linear_158_217)"/>
<path fill-rule="evenodd" clip-rule="evenodd" d="M16.9706 19.8669C16.5161 19.6901 16.0513 19.5411 15.5786 19.4209C16.1376 18.3809 16.2546 16.8409 15.7266 15.8679C14.9866 14.5019 14.0566 13.7749 11.8976 13.7749C10.7106 13.7749 7.51263 14.1909 7.45563 16.9689C7.44896 17.2602 7.45562 17.5282 7.47562 17.7729L13.3156 17.8169C12.5276 19.1169 11.7906 20.0809 11.1456 20.8139C11.9206 21.0199 12.5596 21.1939 13.1466 21.3529C13.7036 21.5039 14.2136 21.6429 14.7476 21.7839C15.5259 21.189 16.2675 20.5489 16.9706 19.8669Z" fill="url(#paint3_linear_158_217)"/>
<path d="M6.70977 17.4877C6.94877 19.5977 8.10077 20.4247 10.4558 20.6697C12.8108 20.9137 14.1618 20.7497 15.9598 20.9197C17.4618 21.0627 18.8028 21.8597 19.2998 21.5837C19.7478 21.3357 19.4978 20.4407 18.8988 19.8667C18.1218 19.1227 17.0468 18.6047 15.1558 18.4217C15.5328 17.3477 15.4268 15.8417 14.8418 15.0227C13.9948 13.8387 12.4328 13.3027 10.4558 13.5367C8.38977 13.7817 6.41077 14.8397 6.70977 17.4877Z" fill="url(#paint4_linear_158_217)"/>
<defs>
<linearGradient id="paint0_linear_158_217" x1="19.6216" y1="34.3333" x2="-1.59747" y2="33.5218" gradientUnits="userSpaceOnUse">
<stop stop-color="#8B79BB"/>
<stop offset="1" stop-color="#362466" stop-opacity="0.7"/>
</linearGradient>
<linearGradient id="paint1_linear_158_217" x1="10.901" y1="14.6817" x2="24.808" y2="18.4717" gradientUnits="userSpaceOnUse">
<stop stop-color="#8697FF"/>
<stop offset="1" stop-color="#ABB7FF"/>
</linearGradient>
<linearGradient id="paint2_linear_158_217" x1="22.3992" y1="14.4087" x2="12.0252" y2="4.41374" gradientUnits="userSpaceOnUse">
<stop stop-color="#8697FF"/>
<stop offset="1" stop-color="#5156D8" stop-opacity="0"/>
</linearGradient>
<linearGradient id="paint3_linear_158_217" x1="17.2486" y1="20.2299" x2="7.47962" y2="14.8319" gradientUnits="userSpaceOnUse">
<stop stop-color="#465EED"/>
<stop offset="1" stop-color="#8697FF" stop-opacity="0"/>
</linearGradient>
<linearGradient id="paint4_linear_158_217" x1="11.7268" y1="14.5747" x2="18.5258" y2="22.8767" gradientUnits="userSpaceOnUse">
<stop stop-color="#8898FF"/>
<stop offset="0.984" stop-color="#6277F1"/>
</linearGradient>
</defs>
</svg>
