<svg width="29" height="44" viewBox="0 0 29 44" fill="none" xmlns="http://www.w3.org/2000/svg">
<g clip-path="url(#clip0_169_2973)">
<path fill-rule="evenodd" clip-rule="evenodd" d="M12.7324 41.28C13.6686 41.0815 13.6841 41.3812 14.4837 41.3751C15.3097 41.3688 15.5339 40.9634 16.3479 41.363C16.189 43.5464 12.2074 42.9246 12.7324 41.2801V41.28ZM25.8094 41.2912C25.2184 41.0892 25.3472 41.2027 25.111 40.5944L26.0313 40.7438C24.4959 39.1108 24.7801 36.2342 25.4999 34.2413L26.7049 34.0632C27.7238 35.6494 27.7906 40.5313 25.8094 41.2913V41.2912ZM11.0773 38.7867C13.0795 37.9304 15.9878 37.7286 17.8888 38.8275C16.6374 40.4106 13.0714 40.2722 11.6529 39.359C11.2594 39.1057 11.2429 39.0259 11.0773 38.7867ZM2.27136 34.0719L3.44662 34.2811C4.27866 36.1546 4.44472 39.194 2.93611 40.6965L3.86251 40.5848C2.81429 43.48 0.289735 37.1801 2.27122 34.0721L2.27136 34.0719ZM4.81953 28.3794C5.9948 28.8398 6.4089 29.4862 7.99222 29.8971C9.60713 30.3162 10.8894 30.093 12.3263 30.3622C12.7485 32.4009 12.5829 32.422 11.8465 34.1733C12.8657 35.638 16.1216 35.6532 17.1408 34.1777C16.3556 32.3967 16.25 32.4523 16.6396 30.3612C17.9838 30.1077 19.2973 30.2809 20.8298 29.9328C22.4945 29.5546 22.9834 28.8192 24.161 28.4044C23.992 31.0539 23.2759 33.9157 21.5713 35.8974C18.62 39.3286 17.8963 36.8632 14.4887 36.8748C11.1299 36.8863 10.2787 39.2692 7.4133 35.892C5.68536 33.8556 4.97377 31.0925 4.81953 28.3792V28.3794ZM24.9153 28.5396C25.0424 28.2598 27.3861 26.297 27.9381 27.613C27.4515 27.7844 26.9083 27.7772 26.2586 28.0524C25.537 28.3581 25.6399 28.563 24.9153 28.5395V28.5396ZM2.58258 28.0015C1.96865 27.759 1.49398 27.7801 1.0428 27.6124C1.21352 27.4027 0.766873 26.9612 1.97181 27.2134C2.43658 27.3107 3.78079 27.9702 4.06413 28.5399C3.34938 28.5646 3.309 28.2887 2.58258 28.0016V28.0015ZM17.0301 29.2644C16.5236 26.8329 21.7959 25.0189 23.3878 27.4082C22.2038 28.9908 18.9106 29.4263 17.0301 29.2644ZM5.63069 27.4173C7.01074 24.8874 12.5286 27.0135 12.021 29.1841C10.4757 29.7453 6.57 28.8314 5.63069 27.4173ZM3.52519 27.6124C1.96714 26.678 -0.279563 25.5725 0.0286405 28.5815C0.235758 30.6033 0.942813 31.5983 1.7364 33.3072C0.457434 34.9305 0.126156 36.5097 0.232873 38.6359C0.51814 44.3199 4.77366 44.8848 5.3273 39.0249C5.42701 37.9696 5.35188 36.7396 5.08887 35.7152C4.59854 33.8058 3.94656 34.0754 4.54855 33.4771C5.06332 34.3509 5.51903 35.8247 6.16373 36.9514C7.64446 39.5391 11.4065 43.9712 14.4866 44.0002C17.1333 44.0251 19.1606 41.6147 20.5599 39.9064C24.401 35.217 23.074 35.5321 24.4986 33.4529C24.7804 34.2166 24.6382 33.8674 24.2409 34.7209C23.639 36.0137 23.5075 37.8339 23.6739 39.2204C23.8552 40.7308 24.6028 43.5465 26.5699 43.1116C28.712 42.6379 29.8582 36.3363 27.2466 33.3055C28.0668 31.4474 29.5154 29.2428 28.8137 27.108C27.8363 26.1254 26.4754 27.0186 25.4473 27.5982C24.3234 26.5145 24.5701 25.7092 22.7133 24.5417C21.3841 23.7059 19.8868 24.5958 18.6397 25.2104C14.7993 27.1026 16.0845 29.8147 15.5722 33.5534L14.4329 34.3302L13.4385 33.5048C13.2074 31.7577 13.3402 29.9827 12.9498 28.1893C12.532 26.2686 11.9882 26.0767 10.3535 25.196C9.03247 24.4842 7.52922 23.7418 6.1511 24.6196C4.40722 25.7304 4.69949 26.4747 3.52505 27.6124H3.52519Z" fill="url(#paint0_linear_169_2973)"/>
<path fill-rule="evenodd" clip-rule="evenodd" d="M3.96165 19.1244C6.2464 13.9129 24.0266 7.37194 26.9046 13.8957C24.666 12.2616 23.9328 11.7606 20.8274 11.7529C18.5651 11.7474 16.1011 12.2514 13.9637 12.9621C11.3198 13.8411 8.21731 15.401 6.00975 17.1502C5.23526 17.7639 4.65566 18.5899 3.96165 19.1246V19.1244ZM2.63709 25.8144C4.40556 24.4543 5.92789 22.7693 7.9444 21.4193C11.6151 18.9618 21.1733 12.96 25.52 16.1222C26.6413 16.9379 26.8866 17.8656 27.6837 18.6879C29.6629 15.0204 27.9647 11.7521 24.2282 10.6468C18.4413 8.93515 9.60821 12.3067 4.91607 16.6137C2.76221 18.5907 0.0580164 22.955 2.63709 25.8144Z" fill="url(#paint1_linear_169_2973)"/>
<path fill-rule="evenodd" clip-rule="evenodd" d="M3.03329 14.1681C3.6166 12.417 6.76854 10.6319 8.52794 10.0088C11.328 9.01714 14.1388 8.88676 17.071 9.34289C15.3941 9.91447 14.5353 9.56232 12.8123 9.69228C9.43456 9.94724 4.90696 11.5276 3.03316 14.1681H3.03329ZM1.46055 19.5159C1.95334 18.9306 2.38255 18.0558 2.96036 17.3604C7.13086 12.3408 13.7728 10.1451 20.0065 9.33266C17.2575 7.11354 9.88876 8.19545 6.77939 9.6067C3.02299 11.3116 -0.107115 15.0327 1.46055 19.5159Z" fill="url(#paint2_linear_169_2973)"/>
<path fill-rule="evenodd" clip-rule="evenodd" d="M17.3915 18.1105C19.085 16.8935 24.4478 16.1158 25.3686 18.6988C23.7916 17.699 23.468 17.3695 21.3978 17.5695C20.1797 17.687 18.4486 18.5651 17.3915 18.1105ZM16.1211 17.8168C17.908 19.144 19.6439 20.1648 21.4178 21.5953L26.3286 25.801C28.4479 23.4734 27.5735 19.1527 25.3967 17.2067C23.3685 15.3936 18.0159 16.4455 16.1212 17.8167L16.1211 17.8168Z" fill="url(#paint3_linear_169_2973)"/>
<path fill-rule="evenodd" clip-rule="evenodd" d="M22.1893 4.04986C22.7023 4.20195 22.8454 4.41155 23.0736 4.98949C22.6703 4.71172 22.4044 4.54747 22.1893 4.04986ZM5.49414 4.37588C8.53813 3.61267 14.3024 -1.58975 21.4641 3.18959C21.5145 3.22318 21.9339 3.4845 21.9427 3.49376C22.305 3.87025 22.0722 3.48561 22.1489 3.98958C21.4054 3.84094 20.4706 3.04192 19.6477 2.68894C14.746 0.585678 10.8255 2.78074 9.5994 2.94541C12.3366 3.13414 13.9122 2.17543 18.5227 3.63548C19.9322 4.0818 24.4588 5.77898 25.1355 6.80503C24.9163 3.40749 20.5202 0.49954 16.4646 0.0593107C12.5151 -0.369443 6.51888 1.59389 5.49414 4.37602V4.37588Z" fill="url(#paint4_linear_169_2973)"/>
<path fill-rule="evenodd" clip-rule="evenodd" d="M13.3656 4.85398C13.3097 4.89449 13.2571 4.95104 13.0075 5.06511C12.9566 5.08834 12.7875 5.14862 12.7304 5.16991C12.636 5.20503 12.2455 5.33334 12.1472 5.35463C10.8002 5.64512 10.1798 5.35767 7.8197 6.20066C5.66763 6.96927 5.35792 7.51665 3.78943 8.8184C5.18775 5.86731 10.2363 4.52118 13.3656 4.85398ZM2.00394 12.0327C2.6382 11.643 2.90135 11.0399 3.50224 10.5633C4.0155 10.1562 4.65375 9.74282 5.242 9.41279C5.81995 9.08856 6.7392 8.73876 7.17844 8.45684C7.70351 8.11962 8.268 7.60459 8.84842 7.23183C12.1578 5.10686 13.6357 4.87832 17.4445 4.29775C11.1723 2.93655 1.98416 3.76087 2.00394 12.0326V12.0327Z" fill="url(#paint5_linear_169_2973)"/>
<path fill-rule="evenodd" clip-rule="evenodd" d="M24.7488 9.53865C24.7487 9.51155 24.7121 9.62119 24.6955 9.5999L24.7488 9.53865ZM14.3181 6.81418C17.6553 6.01723 22.9151 6.01557 24.7148 9.39983C23.2664 8.59072 22.9006 7.84119 20.8768 7.26173C19.3686 6.8298 16.8167 6.54125 15.6248 7.23602C17.5946 7.46097 19.4966 7.85198 21.2351 8.83849C22.551 9.58524 22.6804 9.33886 24.051 9.67207C25.075 9.92109 25.6948 10.3371 26.5566 10.6196C25.936 7.58333 22.5855 5.73282 19.6854 5.3255C17.2828 4.988 11.9178 5.80389 10.2539 7.48061L14.318 6.81418H14.3181Z" fill="url(#paint6_linear_169_2973)"/>
<path fill-rule="evenodd" clip-rule="evenodd" d="M19.0385 23.0153C19.6284 23.2836 19.2921 23.2754 19.9481 23.0574C20.1656 22.3867 20.1913 22.7271 19.876 22.176C19.1141 21.8564 18.8165 22.2467 19.0385 23.0153Z" fill="url(#paint7_linear_169_2973)"/>
<path fill-rule="evenodd" clip-rule="evenodd" d="M9.04049 23.0432C9.68354 23.2962 9.34677 23.2926 9.94532 23.0176C10.1471 22.2519 9.87308 21.8673 9.09941 22.1666C8.76497 22.7054 8.83955 22.4246 9.04049 23.0431V23.0432Z" fill="url(#paint8_linear_169_2973)"/>
<path fill-rule="evenodd" clip-rule="evenodd" d="M12.3602 24.5069C12.6375 24.0229 12.6202 24.3283 12.4448 23.5952L11.5309 23.6743C11.3089 24.3071 11.3365 24.0306 11.614 24.6243L12.3601 24.5068L12.3602 24.5069Z" fill="url(#paint9_linear_169_2973)"/>
<path fill-rule="evenodd" clip-rule="evenodd" d="M17.3791 24.5364C17.656 23.9982 17.6439 24.3366 17.4313 23.6791C16.8109 23.435 17.1334 23.4363 16.4629 23.7127L16.6123 24.6029L17.3791 24.5363V24.5364Z" fill="url(#paint10_linear_169_2973)"/>
<path fill-rule="evenodd" clip-rule="evenodd" d="M14.0024 26.042L14.9364 26.0638L14.9982 25.0698L13.9531 25.1638L14.0024 26.042Z" fill="url(#paint11_linear_169_2973)"/>
</g>
<defs>
<linearGradient id="paint0_linear_169_2973" x1="15.7083" y1="16.6846" x2="15.458" y2="49.5074" gradientUnits="userSpaceOnUse">
<stop stop-color="#413870"/>
<stop offset="1" stop-color="#161329"/>
</linearGradient>
<linearGradient id="paint1_linear_169_2973" x1="16.1732" y1="4.26163" x2="16.0053" y2="30.16" gradientUnits="userSpaceOnUse">
<stop stop-color="#413870"/>
<stop offset="1" stop-color="#161329"/>
</linearGradient>
<linearGradient id="paint2_linear_169_2973" x1="11.3167" y1="3.71501" x2="11.1885" y2="22.7016" gradientUnits="userSpaceOnUse">
<stop stop-color="#413870"/>
<stop offset="1" stop-color="#161329"/>
</linearGradient>
<linearGradient id="paint3_linear_169_2973" x1="22.308" y1="12.6119" x2="22.1598" y2="28.4595" gradientUnits="userSpaceOnUse">
<stop stop-color="#413870"/>
<stop offset="1" stop-color="#161329"/>
</linearGradient>
<linearGradient id="paint4_linear_169_2973" x1="16.1332" y1="-2.58279" x2="16.0896" y2="8.69814" gradientUnits="userSpaceOnUse">
<stop stop-color="#413870"/>
<stop offset="1" stop-color="#161329"/>
</linearGradient>
<linearGradient id="paint5_linear_169_2973" x1="10.3676" y1="0.630466" x2="10.2856" y2="14.3318" gradientUnits="userSpaceOnUse">
<stop stop-color="#413870"/>
<stop offset="1" stop-color="#161329"/>
</linearGradient>
<linearGradient id="paint6_linear_169_2973" x1="19.0845" y1="3.21216" x2="19.0518" y2="12.1134" gradientUnits="userSpaceOnUse">
<stop stop-color="#413870"/>
<stop offset="1" stop-color="#161329"/>
</linearGradient>
<linearGradient id="paint7_linear_169_2973" x1="19.5873" y1="21.6255" x2="19.5657" y2="23.5401" gradientUnits="userSpaceOnUse">
<stop stop-color="#413870"/>
<stop offset="1" stop-color="#161329"/>
</linearGradient>
<linearGradient id="paint8_linear_169_2973" x1="9.48671" y1="21.6232" x2="9.46471" y2="23.5521" gradientUnits="userSpaceOnUse">
<stop stop-color="#413870"/>
<stop offset="1" stop-color="#161329"/>
</linearGradient>
<linearGradient id="paint9_linear_169_2973" x1="12.0276" y1="23.2045" x2="12.0112" y2="24.9105" gradientUnits="userSpaceOnUse">
<stop stop-color="#413870"/>
<stop offset="1" stop-color="#161329"/>
</linearGradient>
<linearGradient id="paint10_linear_169_2973" x1="17.0729" y1="23.082" x2="17.0529" y2="24.9095" gradientUnits="userSpaceOnUse">
<stop stop-color="#413870"/>
<stop offset="1" stop-color="#161329"/>
</linearGradient>
<linearGradient id="paint11_linear_169_2973" x1="14.5192" y1="24.6925" x2="14.5017" y2="26.3402" gradientUnits="userSpaceOnUse">
<stop stop-color="#413870"/>
<stop offset="1" stop-color="#161329"/>
</linearGradient>
<clipPath id="clip0_169_2973">
<rect width="29" height="44" fill="white"/>
</clipPath>
</defs>
</svg>
