<svg width="12" height="18" viewBox="0 0 12 18" fill="none" xmlns="http://www.w3.org/2000/svg">
<path d="M5.99975 9L3.78125 11.1967C1.58975 13.3672 0.493998 14.4525 0.800748 15.3892C0.826748 15.4692 0.859248 15.5472 0.898248 15.6232C1.34975 16.5 2.9 16.5 5.99975 16.5C9.0995 16.5 10.6497 16.5 11.1012 15.6225C11.1402 15.5475 11.1727 15.4697 11.1987 15.3892C11.3712 14.862 11.1005 14.2882 10.439 13.5M5.99975 9L8.21825 11.1967M5.99975 9L8.21825 6.80325C10.4097 4.63275 11.5055 3.5475 11.1987 2.61075C11.1729 2.53014 11.1403 2.45186 11.1012 2.37675C10.6497 1.5 9.0995 1.5 5.99975 1.5C2.9 1.5 1.34975 1.5 0.898248 2.3775C0.859248 2.4525 0.826748 2.53025 0.800748 2.61075C0.628248 3.138 0.898998 3.7125 1.55975 4.5M5.99975 9L3.78125 6.80325" stroke="#C886BC" stroke-width="1.5" stroke-linecap="round"/>
</svg>
