<svg width="24" height="18" viewBox="0 0 24 18" fill="none" xmlns="http://www.w3.org/2000/svg">
<path d="M19.931 1.49586C18.4391 0.798543 16.8238 0.292424 15.1412 0C15.1116 0.000422558 15.0834 0.0125504 15.0627 0.0337415C14.8608 0.404895 14.6252 0.88852 14.4682 1.25967C12.6835 0.989913 10.8686 0.989913 9.0839 1.25967C8.92686 0.877273 8.6913 0.404895 8.47817 0.0337415C8.46696 0.0112473 8.4333 0 8.39965 0C6.71707 0.292424 5.113 0.798543 3.60989 1.49586C3.59867 1.49586 3.58746 1.50711 3.57624 1.51836C0.525151 6.09592 -0.316142 10.5498 0.0988958 14.9586C0.0988958 14.9811 0.110113 15.0036 0.132547 15.0149C2.15165 16.4995 4.09223 17.3992 6.01038 17.9953C6.04403 18.0066 6.07768 17.9953 6.0889 17.9728C6.53759 17.3543 6.94141 16.7019 7.28915 16.0159C7.31158 15.9709 7.28915 15.9259 7.24428 15.9146C6.60489 15.6672 5.99916 15.3748 5.40465 15.0374C5.35978 15.0149 5.35978 14.9474 5.39343 14.9136C5.51682 14.8237 5.64021 14.7224 5.7636 14.6325C5.78604 14.61 5.81969 14.61 5.84212 14.6212C9.70085 16.387 13.8624 16.387 17.6763 14.6212C17.6987 14.61 17.7324 14.61 17.7548 14.6325C17.8782 14.7337 18.0016 14.8237 18.125 14.9249C18.1699 14.9586 18.1699 15.0261 18.1138 15.0486C17.5305 15.3973 16.9135 15.6784 16.2742 15.9259C16.2293 15.9371 16.2181 15.9934 16.2293 16.0271C16.5882 16.7132 16.9921 17.3655 17.4295 17.9841C17.4632 17.9953 17.4968 18.0066 17.5305 17.9953C19.4598 17.3992 21.4004 16.4995 23.4195 15.0149C23.442 15.0036 23.4532 14.9811 23.4532 14.9586C23.9467 9.8637 22.6343 5.44359 19.9758 1.51836C19.9646 1.50711 19.9534 1.49586 19.931 1.49586ZM7.87244 12.2706C6.71707 12.2706 5.75238 11.2021 5.75238 9.88619C5.75238 8.57028 6.69463 7.50181 7.87244 7.50181C9.06147 7.50181 10.0037 8.58153 9.9925 9.88619C9.9925 11.2021 9.05025 12.2706 7.87244 12.2706ZM15.6909 12.2706C14.5355 12.2706 13.5708 11.2021 13.5708 9.88619C13.5708 8.57028 14.513 7.50181 15.6909 7.50181C16.8799 7.50181 17.8221 8.58153 17.8109 9.88619C17.8109 11.2021 16.8799 12.2706 15.6909 12.2706Z" fill="white" fill-opacity="0.66"/>
</svg>
